<svg width="235" height="231" viewBox="0 0 235 231" fill="none" xmlns="http://www.w3.org/2000/svg">
<mask id="mask0_1_4055" style="mask-type:luminance" maskUnits="userSpaceOnUse" x="0" y="0" width="235" height="149">
<path d="M0.333313 0.822922H234.302V148.667H0.333313V0.822922Z" fill="white"/>
</mask>
<g mask="url(#mask0_1_4055)">
<path d="M213.344 147.432C213.911 147.635 214.495 147.797 215.089 147.932C215.682 148.063 216.276 148.156 216.88 148.219C217.484 148.281 218.089 148.302 218.698 148.292C219.302 148.281 219.906 148.234 220.51 148.151C221.109 148.068 221.703 147.948 222.292 147.797C222.875 147.641 223.453 147.453 224.016 147.234C224.583 147.01 225.13 146.755 225.667 146.469C226.198 146.182 226.714 145.865 227.214 145.516C227.708 145.167 228.182 144.792 228.635 144.385C229.089 143.984 229.51 143.552 229.911 143.099C230.312 142.641 230.687 142.167 231.031 141.667C231.375 141.167 231.687 140.651 231.974 140.115C232.255 139.578 232.505 139.026 232.724 138.458C232.943 137.891 233.125 137.313 233.271 136.729C233.422 136.141 233.536 135.547 233.615 134.943C233.693 134.344 233.734 133.74 233.74 133.13V103.135C233.74 101.26 233.599 99.4011 233.307 97.5469C233.021 95.6979 232.594 93.8802 232.021 92.0938C231.453 90.3073 230.75 88.5781 229.917 86.9011C229.078 85.224 228.12 83.6198 227.036 82.0886C225.953 80.5625 224.755 79.125 223.453 77.7813C222.146 76.4375 220.745 75.1979 219.25 74.0729C217.75 72.9427 216.177 71.9375 214.526 71.0521C212.875 70.1667 211.167 69.4167 209.396 68.7917L21 2.61981C20.4271 2.41668 19.8385 2.25001 19.2448 2.11981C18.651 1.98439 18.0468 1.89064 17.4375 1.83335C16.8333 1.77085 16.2239 1.75002 15.6146 1.76043C15.0052 1.77085 14.3958 1.82293 13.7916 1.90626C13.1875 1.99481 12.5885 2.1146 12 2.27085C11.4114 2.4271 10.8333 2.61981 10.2656 2.84376C9.69789 3.06772 9.14581 3.32814 8.60935 3.61981C8.07289 3.91147 7.55727 4.23439 7.06247 4.58856C6.56247 4.94272 6.08852 5.32293 5.63539 5.73439C5.18227 6.14064 4.75518 6.57814 4.35935 7.03647C3.95831 7.50001 3.58852 7.98439 3.24477 8.4896C2.90102 8.99481 2.58852 9.51564 2.31247 10.0573C2.03122 10.599 1.78122 11.1563 1.57289 11.7292C1.35935 12.3021 1.17706 12.8854 1.03643 13.4792C0.890599 14.0677 0.781225 14.6719 0.708307 15.2761C0.640599 15.8802 0.604141 16.4896 0.604141 17.099V56.8698C0.593723 58.0313 0.677056 59.1927 0.848932 60.3438C1.02601 61.5 1.28643 62.6302 1.63539 63.7396C1.98435 64.8542 2.41664 65.9323 2.93747 66.974C3.4531 68.0209 4.05206 69.0156 4.72393 69.9688C5.39581 70.9219 6.1406 71.8125 6.9531 72.6511C7.7656 73.4844 8.6406 74.25 9.57289 74.9531C10.5052 75.6511 11.4843 76.2761 12.5156 76.8177C13.5416 77.3646 14.6093 77.8281 15.7135 78.2084L123.312 116.047L213.344 147.432Z" fill="#FF6600"/>
</g>
<mask id="mask1_1_4055" style="mask-type:luminance" maskUnits="userSpaceOnUse" x="0" y="134" width="181" height="97">
<path d="M0.333313 134H180.333V230.823H0.333313V134Z" fill="white"/>
</mask>
<g mask="url(#mask1_1_4055)">
<path d="M0.604141 215C0.604141 215.609 0.6406 216.214 0.713516 216.818C0.791641 217.427 0.901015 218.021 1.04164 218.615C1.18747 219.208 1.36977 219.786 1.58331 220.359C1.79685 220.927 2.04685 221.484 2.3281 222.026C2.60414 222.568 2.91664 223.089 3.26039 223.594C3.60414 224.094 3.97393 224.578 4.37497 225.036C4.77602 225.495 5.2031 225.927 5.65622 226.339C6.10414 226.745 6.58331 227.125 7.0781 227.479C7.5781 227.833 8.09372 228.151 8.63018 228.443C9.16143 228.734 9.71352 228.99 10.2812 229.214C10.8489 229.438 11.4271 229.63 12.0156 229.786C12.6041 229.943 13.1979 230.063 13.8021 230.146C14.4062 230.234 15.0104 230.281 15.6198 230.292C16.2291 230.307 16.8385 230.281 17.4427 230.224C18.0521 230.161 18.651 230.068 19.2448 229.932C19.8437 229.802 20.4271 229.635 21 229.438L176.443 174.87C176.896 174.698 177.318 174.464 177.698 174.161C178.083 173.859 178.411 173.51 178.687 173.109C178.964 172.708 179.172 172.276 179.318 171.813C179.464 171.349 179.531 170.875 179.531 170.391C179.531 169.901 179.464 169.427 179.318 168.964C179.172 168.5 178.964 168.068 178.687 167.667C178.411 167.266 178.083 166.917 177.698 166.615C177.318 166.313 176.896 166.078 176.443 165.906L114.526 144.073L92.1093 136.224C87.8958 134.745 83.5521 134.005 79.0833 134.005C74.6198 134.005 70.276 134.745 66.0625 136.224L15.6666 153.891C14.5677 154.271 13.5052 154.734 12.4739 155.281C11.4479 155.833 10.4687 156.453 9.54164 157.156C8.60935 157.854 7.73956 158.625 6.92706 159.458C6.11977 160.292 5.37497 161.188 4.7031 162.141C4.03122 163.089 3.43747 164.089 2.92185 165.13C2.40622 166.177 1.97393 167.25 1.63018 168.365C1.28122 169.474 1.02081 170.604 0.848932 171.755C0.677056 172.906 0.593723 174.068 0.604141 175.229V215Z" fill="#FF6600"/>
</g>
</svg>
